<svg width="100px" height="100px"  xmlns="http://www.w3.org/2000/svg" xmlns:xlink="http://www.w3.org/1999/xlink"  viewBox="0 0 841.89 595.28" >
  <path d="M454.44 308.88c-0.36-0.36-0.97-0.1-0.97 0.4v35.68c-0.12 4.67 1.54 6.18 6.06 6.18h12.21c4.52 0 6.18-1.51 6.18-6.18l0.05-12.32c0-0.15-0.06-0.3-0.17-0.4z" fill="#fff"/>
  <path d="M692.37 244.13h10.42c5.29 0 7 1.71 7 7v34.72c0 5.12-1.71 7-7 7h-10.42c-5.29 0-7-1.88-7-7v-34.72C685.37 245.84 687.08 244.13 692.37 244.13z" fill="#fff"/>
  <path d="M420.94 298.88v10.42c0 5.29-1.71 7-7 7h-34.72c-5.12 0-7-1.71-7-7v-10.42c0-5.29 1.88-7 7-7h34.72C419.24 291.88 420.94 293.58 420.94 298.88z" fill="#fff"/>
  <g>
    <path d="M281.97 267.66c0.19 0.19 0.49 0.22 0.71 0.06c3.31-2.25 7.8-3.39 13.34-3.39c12.81 0 20.05 5.88 20.05 17.63v19.56c0 0.15 0.06 0.29 0.17 0.4l22.26 22.26c0.31 0.31 0.86 0.17 0.96-0.27c0.78-3.44 1.18-7.12 1.18-11.05v-30.45c0-25.02-15.98-40.54-44.61-40.54c-12.66 0-22.84 3.07-30.25 8.67c-0.28 0.21-0.3 0.62-0.05 0.86L281.97 267.66z" fill="#fff"/>
    <path d="M310.21 327.61c-0.19-0.19-0.49-0.22-0.71-0.06c-3.33 2.26-7.86 3.4-13.48 3.4c-12.66 0-19.9-5.88-19.9-17.64v-19.56c0-0.15-0.06-0.29-0.17-0.4l-22.26-22.26c-0.31-0.31-0.86-0.17-0.96 0.27c-0.78 3.44-1.18 7.12-1.18 11.05v30.45c0 25.02 15.98 40.55 44.46 40.55c12.73 0 22.95-3.08 30.39-8.69c0.28-0.21 0.3-0.62 0.05-0.86L310.21 327.61z" fill="#fff"/>
  </g>
  <path d="M134.12 308.88c-0.36-0.36-0.97-0.1-0.97 0.4v35.68c-0.12 4.67 1.54 6.18 6.06 6.18h12.21c4.52 0 6.18-1.51 6.18-6.18l0.05-12.32c0-0.15-0.06-0.3-0.17-0.4L134.12 308.88z" fill="#fff"/>
  <path d="M212.32 244.13h-12.21c-4.67 0-6.18 1.51-6.18 6.18l0.12 43.56H185c-1.5 0-2.95-0.6-4.01-1.66l-21.68-21.68c-1.06-1.06-1.66-2.49-1.66-3.99l-0.04-15.32c0-5.58-1.66-7.08-6.18-7.08h-12.21c-4.52 0-6.18 1.51-6.06 6.18v23.55c0 1.5 0.6 2.95 1.66 4.01l36.77 36.77c1.06 1.06 2.51 1.66 4.01 1.66h18.45l-0.12 28.67c0 4.67 1.51 6.18 6.18 6.18h12.21c4.52 0 6.03-1.51 6.03-6.18v-94.66C218.35 245.64 216.84 244.13 212.32 244.13z" fill="#fff"/>
  <path d="M500.01 244.13h-40.39c-4.52 0-6.18 1.51-6.18 6.18v24.87c0 1.5 0.6 2.95 1.66 4.01l35.48 35.48c1.06 1.06 2.51 1.66 4.01 1.66h5.43c22.76 0 36.93-13.41 36.93-36.02S522.46 244.13 500.01 244.13z M501.13 293.52L478 270.4v-3.96h19.44c8.89 0 14.02 5.28 14.02 13.87C511.46 287.61 507.64 292.28 501.13 293.52z" fill="#fff"/>
  <g>
    <path d="M647.83 334.57c3.28-5.91 4.96-13.03 4.96-21.1v-63.15c0-4.67-1.66-6.18-6.18-6.18h-12.21c-4.67 0-6.18 1.51-6.18 6.18v63.76c0 0.3-0.02 0.57-0.03 0.86L647.83 334.57z" fill="#fff"/>
    <path d="M612.48 330.92c-1.08 0.11-2.2 0.18-3.39 0.18c-12.66 0-19.14-6.18-19.14-17.03v-63.76c0-4.67-1.51-6.18-6.03-6.18H571.7c-4.67 0-6.18 1.51-6.18 6.18v63.15c0 24.27 15.07 39.94 43.56 39.94c8.51 0 15.82-1.4 21.9-3.98L612.48 330.92z" fill="#fff"/>
  </g>
</svg>
